<svg xmlns:xlink="http://www.w3.org/1999/xlink" xmlns="http://www.w3.org/2000/svg" width="160" height="33" viewBox="0 0 160 33" fill="none">
<path d="M12.9316 32.7166C8.05988 32.7166 4.42846 30.185 4.42846 24.1299V14.4303H0V9.17807C4.87171 7.90095 6.91108 3.66712 7.14491 0H12.2037V8.32802H18.1063V14.4324H12.2037V22.8774C12.2037 25.4091 13.4684 26.2838 15.4833 26.2838H18.3421V32.7187H12.9316V32.7166ZM31.0399 33C33.8031 33 36.9892 31.7947 38.7236 29.6409V32.7166H47.8367V27.489H45.5188V8.32802H34.5086V13.6501H37.648V22.8754C37.648 23.6084 37.0401 26.7088 32.9166 26.7088C30.2693 26.7088 29.7772 25.0991 29.7772 23.0643V8.32802H21.6726V23.3969C21.6726 27.1585 23.3582 33 31.044 33H31.0399ZM50.7402 32.7166H64.0704V27.489H61.3519V18.3808C61.3519 17.0564 62.4763 14.3359 65.8962 14.3359C68.6594 14.3359 69.2227 16.0401 69.2227 18.0502V27.489H66.5286V32.7166H79.7652V27.489H76.9999V18.3808C76.9999 17.0564 78.0064 14.3359 81.4507 14.3359C84.2383 14.3359 84.9175 16.0401 84.9175 18.0502V27.489H82.2701V32.7166H95.4356V27.489H92.7415V18.9721C92.7415 13.956 90.8668 8.04262 83.4657 8.04262C79.8119 8.04262 76.8129 9.792 75.5482 11.9459C73.9541 9.50865 71.5426 8.04262 67.9356 8.04262C65.0768 8.04262 61.9395 9.27252 60.2519 11.6153V8.32597H50.2502V13.648H53.4831V27.487H50.7423V32.7146L50.7402 32.7166ZM112.35 33C119.097 33 122.728 27.8915 122.728 20.2267C122.728 12.5618 119.355 8.04467 112.491 8.04467C110.077 8.04467 107.666 8.96659 106.212 10.102V0H95.0614V5.27483H98.2943V32.7166H105.72V30.5628C107.617 32.1725 109.888 33 112.348 33H112.35ZM110.665 27.062C108.298 27.062 105.98 25.5487 105.98 20.7687C105.98 15.0196 108.721 14.0032 110.618 14.0032C112.82 14.0032 114.764 15.8019 114.764 20.2718C114.764 26.7068 111.907 26.9203 110.665 27.0599V27.062ZM124.182 32.7166H137.606V27.489H134.749V0H123.692V5.27483H126.925V27.487H124.184V32.7146L124.182 32.7166ZM140.533 32.7166H153.721V27.489H151.027V20.6763C151.027 16.0401 154.26 15.0237 156.72 15.0237H160V8.04467H157.353C154.354 8.04467 151.59 9.5107 150.348 11.8535V8.32802H140.298V13.6501H143.203V27.489H140.533V32.7166Z" fill="#003A5B"/>
</svg>