<svg xmlns:xlink="http://www.w3.org/1999/xlink" xmlns="http://www.w3.org/2000/svg" width="135" height="29" viewBox="0 0 135 29" fill="none">
<path fill-rule="evenodd" clip-rule="evenodd" d="M19.4741 3.20633C19.9567 3.16737 20.4359 3.31748 20.8051 3.62332C21.1746 3.92889 21.4039 4.36591 21.4438 4.83719L23.1381 24.8958C23.178 25.367 23.0241 25.8341 22.7114 26.1946C22.3983 26.5551 21.9514 26.7798 21.4692 26.8186L17.9887 27.0989C17.4065 27.1461 16.8403 26.9194 16.4594 26.4895L8.19185 17.1653L8.94185 26.0393C8.98147 26.5106 8.82826 26.9783 8.51509 27.3391C8.20226 27.6996 7.7551 27.9241 7.2729 27.9632L3.66939 28.2532C3.61832 28.2572 3.5673 28.2591 3.51705 28.2591C2.57735 28.2588 1.77929 27.5543 1.70064 26.6233L0.00630349 6.56375C-0.0767407 5.58248 0.670441 4.72176 1.67525 4.6409L5.37056 4.34305C5.95099 4.29688 6.51571 4.52152 6.89693 4.94852L14.9213 13.9358L14.2026 5.4202C14.1198 4.43891 14.867 3.57821 15.8715 3.49735L19.4741 3.20633ZM115.579 10.2825C115.962 5.73457 120.169 2.76312 125.585 3.21805C129.185 3.52019 132.201 4.95285 134.307 7.36063C134.921 8.06223 134.909 9.11317 134.28 9.80106L131.98 12.3138C131.624 12.7028 131.124 12.9214 130.59 12.9104C130.063 12.9002 129.565 12.6634 129.225 12.261C128.152 10.9935 126.545 10.2099 124.699 10.055C123.802 9.98024 123.358 10.1854 123.207 10.2776C122.314 10.8144 122.909 11.7405 122.886 11.8518C123.288 12.2631 125.025 12.865 126.026 13.2093L126.054 13.219C127.82 13.8291 129.819 14.5202 131.429 15.7649C133.491 17.3579 134.424 18.179 134.203 20.8059C134.008 23.115 132.942 25.1097 131.201 26.4221C129.606 27.6245 127.552 28.2305 125.083 28.2307C124.637 28.2307 124.177 28.2106 123.704 28.1712C119.709 27.8359 116.46 26.2215 114.309 23.5032C113.765 22.8156 113.785 21.8399 114.356 21.1751L116.601 18.5638C116.95 18.1581 117.458 17.9252 117.993 17.9251C118.004 17.9251 118.017 17.9248 118.029 17.9251C118.576 17.9358 119.091 18.1906 119.431 18.6194C120.156 19.5325 121.769 21.0976 124.436 21.3216C125.676 21.4257 126.274 21.1634 126.52 20.9983C126.718 20.8654 126.821 20.7121 126.836 20.5296C126.839 20.4951 126.837 20.4754 126.836 20.471C126.83 20.4596 126.718 20.259 126.104 19.9397C125.466 19.608 124.59 19.301 123.662 18.9759L123.622 18.9612C121.878 18.3715 119.904 17.7025 118.327 16.5052C116.286 14.9558 115.361 12.862 115.579 10.2825ZM92.5542 1.45535L96.2749 1.64774C96.7692 1.67326 97.2322 1.88673 97.5629 2.24051C97.8937 2.5949 98.0644 3.06111 98.0376 3.53641L97.3588 15.6702C97.3142 16.4681 97.403 17.5797 98.0766 18.346C98.6193 18.9634 99.5001 19.3076 100.693 19.3694C101.868 19.4301 102.772 19.1796 103.376 18.6233C104.131 17.9292 104.343 16.8324 104.387 16.0345L105.066 3.89969C105.121 2.91012 105.999 2.15171 107.029 2.20438L110.751 2.39676C111.245 2.42265 111.708 2.63575 112.039 2.98953C112.369 3.34365 112.54 3.81014 112.513 4.28543L111.83 16.51C111.66 19.5346 110.551 22.0218 108.62 23.7024C106.765 25.317 104.287 26.1331 101.245 26.1331C100.941 26.1331 100.63 26.1251 100.315 26.1087C96.8862 25.9313 94.1155 24.8047 92.3022 22.8518C90.5663 20.9825 89.737 18.4083 89.9047 15.4065L90.5903 3.15067C90.646 2.16092 91.524 1.40296 92.5542 1.45535ZM30.7241 1.45535C31.2003 1.42592 31.6652 1.59296 32.021 1.91727C32.3768 2.24172 32.5933 2.69805 32.6215 3.18582L33.8247 23.9583C33.8835 24.9744 33.13 25.8479 32.1411 25.9085L28.5942 26.1253C28.5588 26.1275 28.5231 26.1282 28.4877 26.1282C28.0503 26.1282 27.6253 25.9636 27.2963 25.6634C26.9407 25.3389 26.7252 24.8825 26.6967 24.3948L25.4926 3.62235C25.4335 2.60613 26.1881 1.73258 27.1772 1.67215L30.7241 1.45535ZM60.853 0.131135C61.3449 0.117466 61.8251 0.288144 62.185 0.608674C62.5446 0.928893 62.7565 1.37152 62.7719 1.83914L63.435 21.763C63.4674 22.7373 62.6604 23.5526 61.6333 23.5833L57.9497 23.6927C57.4561 23.7075 56.9763 23.5363 56.6167 23.2161C56.257 22.8956 56.0454 22.4524 56.0297 21.9846L55.8335 16.0716L53.1762 22.7454C52.9104 23.4133 52.2459 23.8636 51.4936 23.886L49.9194 23.9329C49.1717 23.954 48.4725 23.545 48.1635 22.8929L45.102 16.4329L45.2973 22.3059C45.3297 23.2801 44.5235 24.0945 43.4965 24.1253L39.812 24.2366C39.7923 24.2371 39.773 24.2366 39.7534 24.2366C39.2811 24.2366 38.8244 24.067 38.479 23.7591C38.119 23.4388 37.9087 22.9954 37.893 22.5276L37.2299 2.60477C37.1971 1.6303 38.0044 0.815114 39.0317 0.784455L44.227 0.628205C44.9818 0.606269 45.6736 1.01699 45.9829 1.66922L50.2729 10.7171L53.9751 1.42606C54.2412 0.758636 54.9058 0.309134 55.6577 0.286408L60.853 0.131135ZM69.4829 0.00125194L79.5981 0.338166C81.8623 0.413933 83.7745 1.16422 85.1274 2.50809C86.4274 3.79919 87.107 5.56073 87.0405 7.46805C86.9792 9.22818 86.2661 10.8014 85.1215 11.929C86.3998 13.2299 87.177 15.0661 87.1098 16.9934C87.0392 19.0158 86.2319 20.8122 84.8364 22.0511C83.4202 23.3088 81.4875 23.9499 79.2387 23.9114C79.1776 23.9104 79.1161 23.9086 79.0542 23.9065L68.6616 23.5598C67.6553 23.5264 66.8668 22.7049 66.9008 21.7259L67.5991 1.71317C67.6156 1.24313 67.8233 0.797958 68.1762 0.476838C68.5224 0.162838 68.9803 -0.00781989 69.4526 0.000275373C69.4627 0.000448392 69.4728 0.000814511 69.4829 0.00125194ZM73.7387 18.4241L77.7788 18.6194C78.2586 18.6443 78.6559 18.4687 78.8608 18.1409C79.025 17.8777 79.1177 17.4066 79.1352 16.7405C79.1454 16.3592 79.1167 15.8245 78.9233 15.4397C78.725 15.0456 78.3543 14.8151 77.8803 14.7923L73.8403 14.596L73.7387 18.4241ZM73.7504 9.17117L77.9506 9.3909C79.1007 9.45424 79.1282 8.23481 79.145 7.58231C79.156 7.15509 79.1341 6.56754 78.9663 6.19559C78.7985 5.8237 78.4722 5.60731 78.0483 5.58524L73.8481 5.36453L73.7504 9.17117Z" fill="#84D7D9"/>
</svg>