<svg xmlns:xlink="http://www.w3.org/1999/xlink" xmlns="http://www.w3.org/2000/svg" width="149" height="32" viewBox="0 0 149 32" fill="none">
<path fill-rule="evenodd" clip-rule="evenodd" d="M21.4523 3.53448C21.9838 3.49156 22.5114 3.65662 22.9181 3.99347C23.3251 4.33008 23.5782 4.8112 23.6222 5.33038L25.4884 27.4271C25.5323 27.9461 25.3632 28.4606 25.0187 28.8577C24.6737 29.2549 24.1809 29.5026 23.6495 29.5452L19.8165 29.8538C19.1751 29.9058 18.5506 29.6564 18.131 29.1829L9.02453 18.9105L9.84972 28.6868C9.89331 29.2059 9.72494 29.7211 9.38 30.1185C9.03532 30.5156 8.54213 30.7621 8.01086 30.805L4.04211 31.1253C3.98596 31.1297 3.93037 31.1321 3.87512 31.1321C2.83961 31.1321 1.95963 30.3553 1.87316 29.3294L0.00695135 7.23273C-0.0845564 6.15182 0.73806 5.20278 1.84484 5.11358L5.91613 4.78546C6.55537 4.73466 7.17689 4.98226 7.5968 5.45245L16.4376 15.3538L15.6446 5.97296C15.5534 4.89198 16.3769 3.9429 17.4835 3.85382L21.4523 3.53448ZM127.322 11.3275C127.744 6.31717 132.379 3.04386 138.346 3.54523C142.31 3.87809 145.632 5.45567 147.952 8.10773C148.628 8.8806 148.616 10.0384 147.923 10.7962L145.39 13.5648C144.998 13.9933 144.447 14.2331 143.859 14.221C143.278 14.2098 142.73 13.9495 142.355 13.5062C141.173 12.1099 139.402 11.2471 137.368 11.0765C136.38 10.9941 135.89 11.2201 135.725 11.3216C134.741 11.9128 135.396 12.9321 135.371 13.055C135.813 13.508 137.727 14.1717 138.83 14.5511L138.861 14.5618C140.806 15.2338 143.008 15.9943 144.782 17.3655C147.053 19.1206 148.082 20.0253 147.838 22.9192C147.624 25.4628 146.449 27.66 144.531 29.1058C142.775 30.4305 140.511 31.0977 137.792 31.098C137.3 31.0979 136.793 31.076 136.272 31.0325C131.871 30.6632 128.293 28.8853 125.923 25.8909C125.323 25.1335 125.345 24.0579 125.975 23.3255L128.448 20.4485C128.833 20.0017 129.393 19.7454 129.982 19.7454C129.994 19.7454 130.008 19.7451 130.021 19.7454C130.624 19.7572 131.191 20.0377 131.566 20.5101C132.363 21.5158 134.141 23.2397 137.078 23.4866C138.444 23.6014 139.103 23.313 139.374 23.1312C139.592 22.9847 139.707 22.8157 139.724 22.6146C139.727 22.5778 139.725 22.5566 139.724 22.5511C139.724 22.5511 139.612 22.3273 138.916 21.9651C138.214 21.5997 137.248 21.2608 136.226 20.9026L136.182 20.887C134.262 20.2374 132.087 19.5007 130.35 18.1819C128.102 16.4753 127.083 14.1691 127.322 11.3275ZM101.953 1.60089L106.052 1.8128C106.596 1.84092 107.107 2.07639 107.471 2.46612C107.835 2.85643 108.024 3.36943 107.994 3.89288L107.246 17.2601C107.197 18.1391 107.295 19.3632 108.037 20.2073C108.635 20.8874 109.604 21.2672 110.918 21.3353C112.213 21.4022 113.21 21.1259 113.875 20.513C114.706 19.7482 114.939 18.5395 114.988 17.6605L115.736 4.29425C115.797 3.20396 116.764 2.36792 117.899 2.42608L121.998 2.638C122.542 2.66641 123.053 2.90139 123.417 3.29132C123.781 3.68133 123.97 4.19462 123.941 4.71808L123.188 18.1859C123.001 21.5173 121.778 24.2565 119.651 26.1077C117.608 27.8865 114.878 28.7855 111.526 28.7855C111.192 28.7855 110.85 28.7762 110.503 28.7581C106.726 28.5628 103.673 27.3226 101.675 25.1712C99.7627 23.1118 98.8503 20.2758 99.0353 16.9691L99.7902 3.46905C99.8514 2.37869 100.818 1.54317 101.953 1.60089ZM33.8429 1.60187C34.3677 1.56935 34.8806 1.75231 35.2726 2.10968C35.6645 2.46703 35.9025 2.96991 35.9337 3.50714L37.2599 26.3909C37.3244 27.5101 36.4937 28.4707 35.4044 28.5374L31.4972 28.7767C31.4582 28.7791 31.419 28.7806 31.38 28.7806C30.8982 28.7806 30.4308 28.5993 30.0685 28.2689C29.6766 27.9115 29.4388 27.4086 29.4073 26.8714L28.0812 3.98858C28.0161 2.86914 28.847 1.90671 29.9366 1.84015L33.8429 1.60187ZM67.0314 0.143858C67.5733 0.128722 68.1026 0.316252 68.4991 0.669249C68.8953 1.02209 69.1287 1.51041 69.1456 2.02569L69.8761 23.973C69.9119 25.0463 69.0232 25.944 67.8917 25.9778L63.8331 26.0989C63.2893 26.1152 62.7616 25.9263 62.3653 25.5735C61.9691 25.2204 61.7361 24.7324 61.7189 24.2171L61.5021 17.7034L58.5753 25.056C58.2824 25.7915 57.5503 26.2871 56.7218 26.3118L54.9874 26.3636C54.1638 26.3867 53.3932 25.9364 53.0528 25.2181L49.6808 18.1019L49.8966 24.5706C49.9325 25.644 49.0437 26.5416 47.9122 26.5755L43.8536 26.6976C43.8318 26.6982 43.81 26.6985 43.7882 26.6985C43.2681 26.6985 42.7664 26.5103 42.3859 26.1712C41.9894 25.8184 41.7567 25.3309 41.7394 24.8157L41.0099 2.86847C40.9737 1.79507 41.8617 0.89745 42.9933 0.863584L48.7169 0.691709C49.5484 0.667544 50.3108 1.11964 50.6515 1.83819L55.3771 11.805L59.4552 1.57062C59.7483 0.835215 60.4803 0.339794 61.3087 0.314756L67.0314 0.143858ZM76.5421 0.00127978L87.6847 0.37335C90.1787 0.456811 92.2852 1.28272 93.7755 2.763C95.2076 4.18534 95.9563 6.1266 95.8829 8.22784C95.8154 10.1667 95.0294 11.8988 93.7687 13.1409C95.1768 14.5739 96.0331 16.5969 95.9591 18.72C95.8814 20.9478 94.9923 22.9267 93.4552 24.2913C91.895 25.6769 89.7656 26.3836 87.2882 26.3411C87.2209 26.34 87.1532 26.3376 87.0851 26.3353L75.6368 25.9534C74.5283 25.9166 73.66 25.0124 73.6974 23.9339L74.4669 1.88702C74.4852 1.3693 74.7139 0.879402 75.1027 0.525694C75.484 0.179863 75.9887 -0.00862377 76.5089 0.000303222C76.5199 0.000491993 76.5311 0.000801845 76.5421 0.00127978ZM81.2296 20.2962L85.6798 20.512C86.2085 20.5395 86.6464 20.3449 86.8722 19.9837C87.053 19.6937 87.1547 19.1753 87.1739 18.4417C87.1852 18.0216 87.1538 17.432 86.9405 17.0081C86.722 16.5742 86.3141 16.3204 85.7921 16.2952L81.3419 16.0794L81.2296 20.2962ZM81.2433 10.1028L85.8702 10.345C87.137 10.4147 87.1671 9.0716 87.1857 8.35284C87.1978 7.88223 87.1732 7.23518 86.9884 6.8255C86.8036 6.41591 86.4445 6.17703 85.9777 6.15265L81.3507 5.90948L81.2433 10.1028Z" fill="white"/>
</svg>